<?xml version="1.0" encoding="UTF-8" standalone="no"?>
<!-- Created with Inkscape (http://www.inkscape.org/) -->

<svg
   xmlns:dc="http://purl.org/dc/elements/1.1/"
   xmlns:cc="http://creativecommons.org/ns#"
   xmlns:rdf="http://www.w3.org/1999/02/22-rdf-syntax-ns#"
   xmlns:svg="http://www.w3.org/2000/svg"
   xmlns="http://www.w3.org/2000/svg"
   xmlns:sodipodi="http://sodipodi.sourceforge.net/DTD/sodipodi-0.dtd"
   xmlns:inkscape="http://www.inkscape.org/namespaces/inkscape"
   width="66.717331mm"
   height="45.550667mm"
   viewBox="0 0 236.39999 161.4"
   id="svg2"
   version="1.1"
   inkscape:version="0.91 r13725"
   sodipodi:docname="logo.svg">
  <defs
     id="defs4" />
  <sodipodi:namedview
     id="base"
     pagecolor="#ffffff"
     bordercolor="#666666"
     borderopacity="1.0"
     inkscape:pageopacity="0.0"
     inkscape:pageshadow="2"
     inkscape:zoom="1.4"
     inkscape:cx="101.49183"
     inkscape:cy="84.301511"
     inkscape:document-units="px"
     inkscape:current-layer="layer1"
     showgrid="true"
     inkscape:object-paths="true"
     inkscape:object-nodes="true"
     inkscape:snap-bbox="false"
     inkscape:snap-intersection-paths="true"
     inkscape:snap-smooth-nodes="true"
     inkscape:snap-grids="true"
     fit-margin-top="0"
     fit-margin-left="0"
     fit-margin-right="0"
     fit-margin-bottom="0"
     inkscape:window-width="1680"
     inkscape:window-height="957"
     inkscape:window-x="0"
     inkscape:window-y="1"
     inkscape:window-maximized="1">
    <inkscape:grid
       type="xygrid"
       id="grid4136"
       originx="-181.8"
       originy="-771.84561" />
  </sodipodi:namedview>
  <metadata
     id="metadata7">
    <rdf:RDF>
      <cc:Work
         rdf:about="">
        <dc:format>image/svg+xml</dc:format>
        <dc:type
           rdf:resource="http://purl.org/dc/dcmitype/StillImage" />
        <dc:title></dc:title>
      </cc:Work>
    </rdf:RDF>
  </metadata>
  <g
     inkscape:label="Layer 1"
     inkscape:groupmode="layer"
     id="layer1"
     transform="translate(-181.8,-119.11663)">
    <g
       id="g4836"
       inkscape:export-xdpi="240"
       inkscape:export-ydpi="240">
      <g
         transform="translate(0,4.9544247)"
         id="g4810">
        <path
           style="fill:none;fill-rule:evenodd;stroke:#000000;stroke-width:6.4000001;stroke-linecap:round;stroke-linejoin:miter;stroke-miterlimit:4;stroke-dasharray:none;stroke-opacity:1"
           d="m 300,182.40778 c 0,20 -20,20 -20,40 0,10 10,20 20,20 10,0 20,-10 20,-20 0,-20 -20,-20 -20,-40"
           id="path4138"
           inkscape:connector-curvature="0"
           sodipodi:nodetypes="csssc" />
        <path
           style="fill:none;fill-rule:evenodd;stroke:#282828;stroke-width:6.4000001;stroke-linecap:butt;stroke-linejoin:miter;stroke-miterlimit:4;stroke-dasharray:none;stroke-opacity:1"
           d="m 270,222.3622 c 0,20 15,30 30,30 15,0 30,-10 30,-30"
           id="path4804"
           inkscape:connector-curvature="0"
           sodipodi:nodetypes="csc" />
        <path
           sodipodi:nodetypes="csc"
           inkscape:connector-curvature="0"
           id="path4806"
           d="m 260,227.3622 c 0,15 15,35 40,35 25,0 40,-20 40,-35"
           style="fill:none;fill-rule:evenodd;stroke:#505050;stroke-width:6.40000057;stroke-linecap:butt;stroke-linejoin:miter;stroke-miterlimit:4;stroke-dasharray:none;stroke-opacity:1" />
        <path
           style="fill:none;fill-rule:evenodd;stroke:#787878;stroke-width:6.40000057;stroke-linecap:butt;stroke-linejoin:miter;stroke-miterlimit:4;stroke-dasharray:none;stroke-opacity:1"
           d="m 250,232.3622 c 0,15 15,40 50,40 35,0 50,-25 50,-40"
           id="path4808"
           inkscape:connector-curvature="0"
           sodipodi:nodetypes="csc" />
      </g>
      <g
         transform="translate(65,-60.045575)"
         id="g4816">
        <path
           sodipodi:nodetypes="csssc"
           inkscape:connector-curvature="0"
           id="path4818"
           d="m 300,182.40778 c 0,20 -20,20 -20,40 0,10 10,20 20,20 10,0 20,-10 20,-20 0,-20 -20,-20 -20,-40"
           style="fill:none;fill-rule:evenodd;stroke:#000000;stroke-width:6.4000001;stroke-linecap:round;stroke-linejoin:miter;stroke-miterlimit:4;stroke-dasharray:none;stroke-opacity:1" />
        <path
           sodipodi:nodetypes="csc"
           inkscape:connector-curvature="0"
           id="path4820"
           d="m 270,222.3622 c 0,20 15,30 30,30 15,0 30,-10 30,-30"
           style="fill:none;fill-rule:evenodd;stroke:#282828;stroke-width:6.4000001;stroke-linecap:butt;stroke-linejoin:miter;stroke-miterlimit:4;stroke-dasharray:none;stroke-opacity:1" />
        <path
           style="fill:none;fill-rule:evenodd;stroke:#505050;stroke-width:6.40000057;stroke-linecap:butt;stroke-linejoin:miter;stroke-miterlimit:4;stroke-dasharray:none;stroke-opacity:1"
           d="m 260,227.3622 c 0,15 15,35 40,35 25,0 40,-20 40,-35"
           id="path4822"
           inkscape:connector-curvature="0"
           sodipodi:nodetypes="csc" />
        <path
           sodipodi:nodetypes="csc"
           inkscape:connector-curvature="0"
           id="path4824"
           d="m 250,232.3622 c 0,15 15,40 50,40 35,0 50,-25 50,-40"
           style="fill:none;fill-rule:evenodd;stroke:#787878;stroke-width:6.40000057;stroke-linecap:butt;stroke-linejoin:miter;stroke-miterlimit:4;stroke-dasharray:none;stroke-opacity:1" />
      </g>
      <g
         id="g4826"
         transform="translate(-65,-60.045575)">
        <path
           style="fill:none;fill-rule:evenodd;stroke:#000000;stroke-width:6.4000001;stroke-linecap:round;stroke-linejoin:miter;stroke-miterlimit:4;stroke-dasharray:none;stroke-opacity:1"
           d="m 300,182.40778 c 0,20 -20,20 -20,40 0,10 10,20 20,20 10,0 20,-10 20,-20 0,-20 -20,-20 -20,-40"
           id="path4828"
           inkscape:connector-curvature="0"
           sodipodi:nodetypes="csssc" />
        <path
           style="fill:none;fill-rule:evenodd;stroke:#282828;stroke-width:6.4000001;stroke-linecap:butt;stroke-linejoin:miter;stroke-miterlimit:4;stroke-dasharray:none;stroke-opacity:1"
           d="m 270,222.3622 c 0,20 15,30 30,30 15,0 30,-10 30,-30"
           id="path4830"
           inkscape:connector-curvature="0"
           sodipodi:nodetypes="csc" />
        <path
           sodipodi:nodetypes="csc"
           inkscape:connector-curvature="0"
           id="path4832"
           d="m 260,227.3622 c 0,15 15,35 40,35 25,0 40,-20 40,-35"
           style="fill:none;fill-rule:evenodd;stroke:#505050;stroke-width:6.40000057;stroke-linecap:butt;stroke-linejoin:miter;stroke-miterlimit:4;stroke-dasharray:none;stroke-opacity:1" />
        <path
           style="fill:none;fill-rule:evenodd;stroke:#787878;stroke-width:6.40000057;stroke-linecap:butt;stroke-linejoin:miter;stroke-miterlimit:4;stroke-dasharray:none;stroke-opacity:1"
           d="m 250,232.3622 c 0,15 15,40 50,40 35,0 50,-25 50,-40"
           id="path4834"
           inkscape:connector-curvature="0"
           sodipodi:nodetypes="csc" />
      </g>
    </g>
  </g>
</svg>
